<svg xmlns="http://www.w3.org/2000/svg" viewBox="0 0 1675.35 1676.6"><defs><style>.cls-1{fill:#fff;}</style></defs><g id="Capa_2" data-name="Capa 2"><g id="Capa_4" data-name="Capa 4"><path class="cls-1" d="M1546.48,1547.72h-31L1311.78,897.1l42-80.38-80.38-42.05L1159.86,412l-1.24.4L1469,130.12h141.93V1.24H1417.61V2.68L902.11,471.45V130.12H1031V1.24H776.82L774.23,0l-.66,1.24h-.33v.63L515,490.92,257.75,3.74V1.24h-1.32L255.77,0l-2.59,1.24H0V130.12H128.87V581.17L64.44,645.61l64.43,64.44v839.86a2.19,2.19,0,0,0-2.19-2.19H2.19A2.19,2.19,0,0,0,0,1549.91v124.5a2.19,2.19,0,0,0,2.19,2.19H126.68a2.19,2.19,0,0,0,2.19-2.19v2.19H257.75V279.52L451.06,645.61H579.93v-1.87L773.24,277.66V774.48H386.62l-64.44,64.44V1161.1l-64.43,64.44L322.18,1290v322.18l64.44,64.44H837.68l64.43-64.44V1418.85H773.24v128.87H451.06V903.36H773.24v193.31H902.11V645.61L1054.58,507l363,1159.29v10.35h257.74V1547.72Z"/></g></g></svg>